<svg width="24" height="24" viewBox="0 0 24 24" fill="none" xmlns="http://www.w3.org/2000/svg">
<path d="M18.45 21.025L13.1618 15.7C12.6706 16.0167 12.0916 16.275 11.425 16.475C10.7583 16.675 10.0416 16.775 9.27498 16.775C7.24543 16.775 5.52137 16.0653 4.1028 14.646C2.68425 13.2267 1.97498 11.5017 1.97498 9.47099C1.97498 7.44032 2.68464 5.71665 4.10398 4.29999C5.52331 2.88332 7.24831 2.17499 9.27898 2.17499C11.3096 2.17499 13.0333 2.88426 14.45 4.30281C15.8666 5.72138 16.575 7.44544 16.575 9.47499C16.575 10.2583 16.4791 10.9667 16.2875 11.6C16.0958 12.2333 15.8333 12.7917 15.5 13.275L20.875 18.675C21.1916 18.9847 21.3458 19.3712 21.3375 19.8345C21.3291 20.2979 21.1652 20.6961 20.8456 21.0293C20.5185 21.3431 20.1208 21.5 19.6525 21.5C19.1841 21.5 18.7833 21.3417 18.45 21.025ZM9.26468 13.375C10.3745 13.375 11.3036 13.0042 12.0522 12.2625C12.8007 11.5208 13.175 10.5951 13.175 9.48529C13.175 8.37549 12.8007 7.44632 12.0522 6.69779C11.3036 5.94925 10.3745 5.57499 9.26468 5.57499C8.15488 5.57499 7.22914 5.94925 6.48748 6.69779C5.74581 7.44632 5.37498 8.37549 5.37498 9.48529C5.37498 10.5951 5.74581 11.5208 6.48748 12.2625C7.22914 13.0042 8.15488 13.375 9.26468 13.375Z" fill="#1B1B1B"/>
</svg>
